<mxfile host="app.diagrams.net" agent="Mozilla/5.0 (Windows NT 10.0; Win64; x64) AppleWebKit/537.36 (KHTML, like Gecko) Chrome/139.0.0.0 Safari/537.36" version="28.1.1">
  <diagram name="第 1 页" id="O8bLMkEa8woCRvAs-dQq">
    <mxGraphModel dx="786" dy="425" grid="1" gridSize="10" guides="1" tooltips="1" connect="1" arrows="1" fold="1" page="1" pageScale="1" pageWidth="827" pageHeight="1169" math="0" shadow="0">
      <root>
        <mxCell id="0" />
        <mxCell id="1" parent="0" />
        <mxCell id="43Mq4942pUjB6CocNSqJ-1" value="" style="swimlane;startSize=0;dashed=1;" vertex="1" parent="1">
          <mxGeometry x="110" y="90" width="150" height="290" as="geometry" />
        </mxCell>
        <mxCell id="43Mq4942pUjB6CocNSqJ-10" style="edgeStyle=orthogonalEdgeStyle;rounded=0;orthogonalLoop=1;jettySize=auto;html=1;" edge="1" parent="43Mq4942pUjB6CocNSqJ-1" source="43Mq4942pUjB6CocNSqJ-3" target="43Mq4942pUjB6CocNSqJ-6">
          <mxGeometry relative="1" as="geometry" />
        </mxCell>
        <mxCell id="43Mq4942pUjB6CocNSqJ-3" value="" style="shape=cylinder3;whiteSpace=wrap;html=1;boundedLbl=1;backgroundOutline=1;size=15;fillColor=default;strokeColor=#7EA6E0;" vertex="1" parent="43Mq4942pUjB6CocNSqJ-1">
          <mxGeometry x="40" y="40" width="60" height="80" as="geometry" />
        </mxCell>
        <mxCell id="43Mq4942pUjB6CocNSqJ-4" value="主库" style="text;strokeColor=none;fillColor=none;html=1;fontSize=24;fontStyle=1;verticalAlign=middle;align=center;" vertex="1" parent="43Mq4942pUjB6CocNSqJ-1">
          <mxGeometry x="20" width="100" height="40" as="geometry" />
        </mxCell>
        <mxCell id="43Mq4942pUjB6CocNSqJ-6" value="二进制&lt;div&gt;日志&lt;/div&gt;" style="shape=card;whiteSpace=wrap;html=1;fillColor=#E6D0DE;sketch=1;curveFitting=1;jiggle=2;shadow=1;rounded=0;strokeColor=#FF9999;fillStyle=hachure;" vertex="1" parent="43Mq4942pUjB6CocNSqJ-1">
          <mxGeometry x="30" y="170" width="80" height="100" as="geometry" />
        </mxCell>
        <mxCell id="43Mq4942pUjB6CocNSqJ-11" value="数据变更" style="text;html=1;align=center;verticalAlign=middle;whiteSpace=wrap;rounded=0;" vertex="1" parent="43Mq4942pUjB6CocNSqJ-1">
          <mxGeometry x="80" y="130" width="60" height="30" as="geometry" />
        </mxCell>
        <mxCell id="43Mq4942pUjB6CocNSqJ-2" value="" style="swimlane;startSize=0;dashed=1;" vertex="1" parent="1">
          <mxGeometry x="414" y="90" width="280" height="290" as="geometry" />
        </mxCell>
        <mxCell id="43Mq4942pUjB6CocNSqJ-5" value="从库&lt;div&gt;&lt;br&gt;&lt;/div&gt;" style="text;strokeColor=none;fillColor=none;html=1;fontSize=24;fontStyle=1;verticalAlign=middle;align=center;" vertex="1" parent="43Mq4942pUjB6CocNSqJ-2">
          <mxGeometry x="75" y="20" width="100" height="30" as="geometry" />
        </mxCell>
        <mxCell id="43Mq4942pUjB6CocNSqJ-12" value="" style="shape=cylinder3;whiteSpace=wrap;html=1;boundedLbl=1;backgroundOutline=1;size=15;" vertex="1" parent="43Mq4942pUjB6CocNSqJ-2">
          <mxGeometry x="180" y="20" width="60" height="80" as="geometry" />
        </mxCell>
        <mxCell id="43Mq4942pUjB6CocNSqJ-13" value="IO线程" style="ellipse;whiteSpace=wrap;html=1;aspect=fixed;fillColor=none;gradientColor=#7ea6e0;strokeColor=#6c8ebf;" vertex="1" parent="43Mq4942pUjB6CocNSqJ-2">
          <mxGeometry x="30" y="50" width="80" height="80" as="geometry" />
        </mxCell>
        <mxCell id="43Mq4942pUjB6CocNSqJ-14" value="SQL线程" style="ellipse;whiteSpace=wrap;html=1;aspect=fixed;" vertex="1" parent="43Mq4942pUjB6CocNSqJ-2">
          <mxGeometry x="170" y="180" width="80" height="80" as="geometry" />
        </mxCell>
        <mxCell id="43Mq4942pUjB6CocNSqJ-15" value="中继日志&lt;div&gt;relay log&lt;/div&gt;" style="shape=card;whiteSpace=wrap;html=1;fontStyle=1;fillStyle=hatch;fillColor=#E6D0DE;strokeColor=#E6D0DE;" vertex="1" parent="43Mq4942pUjB6CocNSqJ-2">
          <mxGeometry x="30" y="170" width="80" height="100" as="geometry" />
        </mxCell>
        <mxCell id="43Mq4942pUjB6CocNSqJ-19" value="" style="endArrow=classic;html=1;rounded=0;exitX=0.5;exitY=1;exitDx=0;exitDy=0;" edge="1" parent="43Mq4942pUjB6CocNSqJ-2" source="43Mq4942pUjB6CocNSqJ-13" target="43Mq4942pUjB6CocNSqJ-15">
          <mxGeometry width="50" height="50" relative="1" as="geometry">
            <mxPoint x="-30" y="160" as="sourcePoint" />
            <mxPoint x="20" y="110" as="targetPoint" />
          </mxGeometry>
        </mxCell>
        <mxCell id="43Mq4942pUjB6CocNSqJ-20" value="写入" style="edgeLabel;html=1;align=center;verticalAlign=middle;resizable=0;points=[];" vertex="1" connectable="0" parent="43Mq4942pUjB6CocNSqJ-19">
          <mxGeometry x="0.0167" y="1" relative="1" as="geometry">
            <mxPoint as="offset" />
          </mxGeometry>
        </mxCell>
        <mxCell id="43Mq4942pUjB6CocNSqJ-21" value="" style="endArrow=classic;html=1;rounded=0;exitX=0;exitY=0.5;exitDx=0;exitDy=0;entryX=1;entryY=0.5;entryDx=0;entryDy=0;entryPerimeter=0;" edge="1" parent="43Mq4942pUjB6CocNSqJ-2" source="43Mq4942pUjB6CocNSqJ-14" target="43Mq4942pUjB6CocNSqJ-15">
          <mxGeometry width="50" height="50" relative="1" as="geometry">
            <mxPoint x="-30" y="160" as="sourcePoint" />
            <mxPoint x="20" y="110" as="targetPoint" />
          </mxGeometry>
        </mxCell>
        <mxCell id="43Mq4942pUjB6CocNSqJ-22" value="读" style="edgeLabel;html=1;align=center;verticalAlign=middle;resizable=0;points=[];" vertex="1" connectable="0" parent="43Mq4942pUjB6CocNSqJ-21">
          <mxGeometry x="-0.1" y="-1" relative="1" as="geometry">
            <mxPoint as="offset" />
          </mxGeometry>
        </mxCell>
        <mxCell id="43Mq4942pUjB6CocNSqJ-23" value="Text" style="edgeLabel;html=1;align=center;verticalAlign=middle;resizable=0;points=[];" vertex="1" connectable="0" parent="43Mq4942pUjB6CocNSqJ-21">
          <mxGeometry x="-0.2" y="-3" relative="1" as="geometry">
            <mxPoint as="offset" />
          </mxGeometry>
        </mxCell>
        <mxCell id="43Mq4942pUjB6CocNSqJ-24" value="读取" style="edgeLabel;html=1;align=center;verticalAlign=middle;resizable=0;points=[];" vertex="1" connectable="0" parent="43Mq4942pUjB6CocNSqJ-21">
          <mxGeometry x="-0.2333" y="-7" relative="1" as="geometry">
            <mxPoint as="offset" />
          </mxGeometry>
        </mxCell>
        <mxCell id="43Mq4942pUjB6CocNSqJ-26" value="" style="endArrow=classic;html=1;rounded=0;entryX=0.5;entryY=1;entryDx=0;entryDy=0;entryPerimeter=0;" edge="1" parent="43Mq4942pUjB6CocNSqJ-2" target="43Mq4942pUjB6CocNSqJ-12">
          <mxGeometry width="50" height="50" relative="1" as="geometry">
            <mxPoint x="210" y="190" as="sourcePoint" />
            <mxPoint x="260" y="140" as="targetPoint" />
          </mxGeometry>
        </mxCell>
        <mxCell id="43Mq4942pUjB6CocNSqJ-27" value="写入" style="edgeLabel;html=1;align=center;verticalAlign=middle;resizable=0;points=[];" vertex="1" connectable="0" parent="43Mq4942pUjB6CocNSqJ-26">
          <mxGeometry x="0.0593" y="2" relative="1" as="geometry">
            <mxPoint as="offset" />
          </mxGeometry>
        </mxCell>
        <mxCell id="43Mq4942pUjB6CocNSqJ-17" value="" style="endArrow=classic;html=1;rounded=0;exitX=0.117;exitY=0.75;exitDx=0;exitDy=0;exitPerimeter=0;entryX=0.992;entryY=0.58;entryDx=0;entryDy=0;entryPerimeter=0;" edge="1" parent="1" source="43Mq4942pUjB6CocNSqJ-13" target="43Mq4942pUjB6CocNSqJ-6">
          <mxGeometry width="50" height="50" relative="1" as="geometry">
            <mxPoint x="360" y="260" as="sourcePoint" />
            <mxPoint x="410" y="210" as="targetPoint" />
          </mxGeometry>
        </mxCell>
        <mxCell id="43Mq4942pUjB6CocNSqJ-18" value="读取" style="edgeLabel;html=1;align=center;verticalAlign=middle;resizable=0;points=[];" vertex="1" connectable="0" parent="43Mq4942pUjB6CocNSqJ-17">
          <mxGeometry x="0.0242" y="3" relative="1" as="geometry">
            <mxPoint as="offset" />
          </mxGeometry>
        </mxCell>
      </root>
    </mxGraphModel>
  </diagram>
</mxfile>
